<?xml version="1.0" encoding="utf-8" standalone="no"?>
<svg xmlns="http://www.w3.org/2000/svg" viewBox="0 0 1440 320" width="1440" height="320">
  <path fill="#FFC15E" fill-opacity="1" d="M0,288L40,277.3C80,267,160,245,240,197.3C320,149,400,75,480,85.3C560,96,640,192,720,229.3C800,267,880,245,960,213.3C1040,181,1120,139,1200,122.7C1280,107,1360,117,1400,122.7L1440,128L1440,0L1400,0C1360,0,1280,0,1200,0C1120,0,1040,0,960,0C880,0,800,0,720,0C640,0,560,0,480,0C400,0,320,0,240,0C160,0,80,0,40,0L0,0Z"></path>
</svg>